<?xml version="1.0" encoding="UTF-8" standalone="no"?><svg xmlns="http://www.w3.org/2000/svg" xmlns:xlink="http://www.w3.org/1999/xlink" contentStyleType="text/css" height="458px" preserveAspectRatio="none" style="width:487px;height:458px;background:#FFFFFF;" version="1.1" viewBox="0 0 487 458" width="487px" zoomAndPan="magnify"><defs/><g><!--MD5=[979da56a7f83e2393dc758167ae295d0]
cluster Server--><g id="cluster_Server"><path d="M315.5,116 L360.5,116 A3.75,3.75 0 0 1 363,118.5 L370,138.4883 L477.5,138.4883 A2.5,2.5 0 0 1 480,140.9883 L480,448.5 A2.5,2.5 0 0 1 477.5,451 L315.5,451 A2.5,2.5 0 0 1 313,448.5 L313,118.5 A2.5,2.5 0 0 1 315.5,116 " fill="none" style="stroke:#000000;stroke-width:1.5;"/><line style="stroke:#000000;stroke-width:1.5;" x1="313" x2="370" y1="138.4883" y2="138.4883"/><text fill="#000000" font-family="sans-serif" font-size="14" font-weight="bold" lengthAdjust="spacing" textLength="44" x="317" y="131.5352">Server</text></g><!--MD5=[7860c4aac97c8dfecfd6394b6c4ce8ea]
entity WaitQueue--><g id="elem_WaitQueue"><path d="M334,279 L418,279 C423,279 423,292.2441 423,292.2441 C423,292.2441 423,305.4883 418,305.4883 L334,305.4883 C329,305.4883 329,292.2441 329,292.2441 C329,292.2441 329,279 334,279 " fill="#F1F1F1" style="stroke:#181818;stroke-width:0.5;"/><path d="M418,279 C413,279 413,292.2441 413,292.2441 C413,305.4883 418,305.4883 418,305.4883 " fill="none" style="stroke:#181818;stroke-width:0.5;"/><text fill="#000000" font-family="sans-serif" font-size="14" lengthAdjust="spacing" textLength="74" x="334" y="297.5352">WaitQueue</text></g><!--MD5=[1e3ccb8a269f5f67b0c7efa3982bd182]
entity UnixSocket--><g id="elem_UnixSocket"><path d="M339.2338,161.1527 C341.5526,155.9386 346.1846,154.2301 350.513,158.8469 C354.5226,153.9933 357.8719,154.0019 361.1866,159.5594 C363.8515,153.328 367.1909,152.0299 372.362,157.0758 C375.3653,151.8593 379.5808,151.8181 383.1517,156.4542 C387.5882,150.708 393.4382,151.5044 396.4632,157.9902 C399.3052,153.5716 403.4068,153.6145 406.3812,157.8382 C410.068,151.9318 415.3706,153.4492 417.9823,158.9332 C422.0212,154.9459 426.0879,154.2264 428.7986,160.3536 C436.3555,163.2192 436.8823,168.616 432.1289,174.4002 C439.8072,180.9218 437.6507,186.8247 429.3341,190.5842 C426.1621,195.4236 422.5011,195.4209 418.9111,191.0575 C415.7829,196.6931 412.0059,197.7359 407.2166,192.9154 C404.6439,199.6828 400.1807,198.82 395.8371,194.7801 C393.1955,200.1554 389.1252,201.2613 384.8276,196.5957 C381.4526,202.6787 376.1282,201.575 373.1549,196.187 C367.9968,200.9723 363.159,200.2142 361.0084,193.1136 C357.5416,198.0628 354.2229,197.2549 350.8349,193.0263 C345.9482,196.9291 341.2685,196.4618 339.4193,189.7574 C330.6109,188.2966 329.1284,181.5926 333.8167,175.0057 C329.8487,168.8064 330.3564,162.329 339.2338,161.1527 " fill="#F1F1F1" style="stroke:#181818;stroke-width:0.5;"/><text fill="#000000" font-family="sans-serif" font-size="14" lengthAdjust="spacing" textLength="77" x="344.5" y="179.5352">UnixSocket</text></g><!--MD5=[6e8f311b0aa23032184ffba0ef926f91]
entity App--><g id="elem_App"><ellipse cx="345" cy="403" fill="#F1F1F1" rx="12" ry="12" style="stroke:#181818;stroke-width:0.5;"/><polygon fill="#181818" points="341,391,347,386,345,391,347,396,341,391" style="stroke:#181818;stroke-width:1.0;"/><text fill="#000000" font-family="sans-serif" font-size="14" lengthAdjust="spacing" textLength="28" x="331" y="432.5352">App</text></g><!--MD5=[4f40616c88d3689c25a72e321dd68143]
entity posix--><g id="elem_posix"><rect fill="#F1F1F1" height="46.4883" rx="2.5" ry="2.5" style="stroke:#181818;stroke-width:0.5;" width="103" x="70.5" y="7"/><rect fill="#F1F1F1" height="10" style="stroke:#181818;stroke-width:0.5;" width="15" x="153.5" y="12"/><rect fill="#F1F1F1" height="2" style="stroke:#181818;stroke-width:0.5;" width="4" x="151.5" y="14"/><rect fill="#F1F1F1" height="2" style="stroke:#181818;stroke-width:0.5;" width="4" x="151.5" y="18"/><text fill="#000000" font-family="sans-serif" font-size="14" lengthAdjust="spacing" textLength="63" x="85.5" y="40.5352">Posix API</text></g><!--MD5=[42ebc3a221766f26c0c3c838382a77fd]
entity SharedMemory--><g id="elem_SharedMemory"><rect fill="#F1F1F1" height="32.4883" rx="2.5" ry="2.5" style="stroke:#181818;stroke-width:0.5;" width="119" x="16.5" y="278"/><rect fill="#F1F1F1" height="32.4883" rx="2.5" ry="2.5" style="stroke:#181818;stroke-width:0.5;" width="119" x="12.5" y="274"/><text fill="#000000" font-family="sans-serif" font-size="14" lengthAdjust="spacing" textLength="103" x="20.5" y="295.5352">SharedMemory</text></g><!--MD5=[0ba5ee7700168656dc1b457c6fe9fdac]
entity Client--><g id="elem_Client"><polygon fill="#F1F1F1" points="16,161,26,151,96,151,96,187.4883,86,197.4883,16,197.4883,16,161" style="stroke:#181818;stroke-width:0.5;"/><line style="stroke:#181818;stroke-width:0.5;" x1="86" x2="96" y1="161" y2="151"/><line style="stroke:#181818;stroke-width:0.5;" x1="16" x2="86" y1="161" y2="161"/><line style="stroke:#181818;stroke-width:0.5;" x1="86" x2="86" y1="161" y2="197.4883"/><text fill="#000000" font-family="sans-serif" font-size="14" lengthAdjust="spacing" textLength="40" x="31" y="184.5352">Client</text></g><!--MD5=[159e9afb5bd6f5154f1433033cb52eb6]
link Client to UnixSocket--><g id="link_Client_UnixSocket"><path d="M96.1,174 C153.19,174 258.28,174 324.2,174 " fill="none" id="Client-to-UnixSocket" style="stroke:#181818;stroke-width:1.0;"/><polygon fill="#181818" points="329.27,174,320.27,170,324.27,174,320.27,178,329.27,174" style="stroke:#181818;stroke-width:1.0;"/><text fill="#000000" font-family="sans-serif" font-size="13" lengthAdjust="spacing" textLength="123" x="151.25" y="167.5684">1. register to queue</text></g><!--MD5=[d1c42c921c4c729662a6e72c0483d170]
link UnixSocket to WaitQueue--><g id="link_UnixSocket_WaitQueue"><path d="M381.67,197.09 C380.32,219.42 378.27,253.45 377.04,273.83 " fill="none" id="UnixSocket-to-WaitQueue" style="stroke:#181818;stroke-width:1.0;"/><polygon fill="#181818" points="376.73,278.95,381.2618,270.2057,377.0295,273.959,373.2762,269.7266,376.73,278.95" style="stroke:#181818;stroke-width:1.0;"/><text fill="#000000" font-family="sans-serif" font-size="13" lengthAdjust="spacing" textLength="98" x="380" y="240.5684">2. add to queue</text></g><!--MD5=[f3df04c208f56118ad180bb78698d477]
link WaitQueue to App--><g id="link_WaitQueue_App"><path d="M372.8,305.08 C368.03,323.07 358.94,357.4 352.45,381.89 " fill="none" id="WaitQueue-to-App" style="stroke:#181818;stroke-width:1.0;"/><polygon fill="#181818" points="351.11,386.96,357.2643,379.2707,352.3797,382.1239,349.5265,377.2393,351.11,386.96" style="stroke:#181818;stroke-width:1.0;"/><text fill="#000000" font-family="sans-serif" font-size="13" lengthAdjust="spacing" textLength="69" x="364" y="353.5684">3. dequeue</text></g><!--MD5=[1de3133160a22ff67c933592cabf7559]
link App to posix--><g id="link_App_posix"><path d="M328.97,387.06 C307.42,355.65 268.62,297.1 241,244 C205.15,175.09 216.06,147.65 173,83 C166.85,73.78 158.94,64.77 151.18,56.92 " fill="none" id="App-to-posix" style="stroke:#181818;stroke-width:1.0;"/><polygon fill="#181818" points="147.4,53.16,150.9541,62.3452,150.9427,56.6884,156.5995,56.677,147.4,53.16" style="stroke:#181818;stroke-width:1.0;"/><text fill="#000000" font-family="sans-serif" font-size="13" lengthAdjust="spacing" textLength="127" x="242" y="240.5684">4. notify usr1 signal</text></g><!--MD5=[f8132c59f70267944772fc8e21cc364c]
link posix to Client--><g id="link_posix_Client"><path d="M75.46,53.1 C64.1,60.87 53.39,70.79 47,83 C36.88,102.33 40.4,127.19 45.73,145.88 " fill="none" id="posix-to-Client" style="stroke:#181818;stroke-width:1.0;"/><polygon fill="#181818" points="47.27,150.98,48.5018,141.2085,45.8267,146.1928,40.8423,143.5177,47.27,150.98" style="stroke:#181818;stroke-width:1.0;"/><text fill="#000000" font-family="sans-serif" font-size="13" lengthAdjust="spacing" textLength="120" x="48" y="96.5684">5. send usr1 signal</text></g><!--MD5=[e3433537f7b55d42b88c37340bcae9b6]
link Client to SharedMemory--><g id="link_Client_SharedMemory"><path d="M59.43,197.09 C62.63,217.7 67.37,248.27 70.57,268.88 " fill="none" id="Client-to-SharedMemory" style="stroke:#181818;stroke-width:1.0;"/><polygon fill="#181818" points="71.35,273.89,73.9143,264.3808,70.579,268.9498,66.01,265.6145,71.35,273.89" style="stroke:#181818;stroke-width:1.0;"/><text fill="#000000" font-family="sans-serif" font-size="13" lengthAdjust="spacing" textLength="78" x="68" y="240.5684">6. write data</text></g><!--MD5=[3f71d8b6a4c51c082e69eec014dd0d45]
link SharedMemory to App--><g id="link_SharedMemory_App"><path d="M74.45,310.19 C75.78,324.74 80.05,345.06 93,357 C126.83,388.19 269.21,403.49 323.68,408.29 " fill="none" id="SharedMemory-to-App" style="stroke:#181818;stroke-width:1.0;"/><polygon fill="#181818" points="328.67,408.72,320.0456,403.9639,323.6884,408.2918,319.3605,411.9345,328.67,408.72" style="stroke:#181818;stroke-width:1.0;"/><text fill="#000000" font-family="sans-serif" font-size="13" lengthAdjust="spacing" textLength="74" x="94" y="353.5684">7. read data</text></g><!--MD5=[9cbc272b877e7413f82aeca7dfafe3bb]
@startuml blueprint

package Server {
    queue WaitQueue
    cloud UnixSocket
    control App
}

component "Posix API" as posix

collections SharedMemory

node Client

Client - -> UnixSocket: 1. register to queue
UnixSocket - -> WaitQueue: 2. add to queue
WaitQueue - -> App: 3. dequeue
App - -> posix: 4. notify usr1 signal
posix - -> Client: 5. send usr1 signal
Client - -> SharedMemory: 6. write data
SharedMemory - -> App: 7. read data

@enduml

PlantUML version 1.2022.7(Tue Aug 23 02:01:30 KST 2022)
(GPL source distribution)
Java Runtime: OpenJDK Runtime Environment
JVM: OpenJDK 64-Bit Server VM
Default Encoding: UTF-8
Language: ko
Country: KR
--></g></svg>